{
  "accessors": [
    {
      "bufferView": 2,
      "componentType": 5126,
      "count": 16449,
      "max": [
        3.6367480754852295,
        2.0135650634765625,
        4.7374320030212402
      ],
      "min": [
        -3.474984884262085,
        -2.4506809711456299,
        0.034605000168085098
      ],
      "type": "VEC3"
    },
    {
      "bufferView": 2,
      "byteOffset": 197388,
      "componentType": 5126,
      "count": 16449,
      "max": [
        0.99981242418289185,
        0.9997972846031189,
        0.99989533424377441
      ],
      "min": [
        -0.99987804889678955,
        -0.99997246265411377,
        -0.99999654293060303
      ],
      "type": "VEC3"
    },
    {
      "bufferView": 3,
      "componentType": 5126,
      "count": 16449,
      "max": [
        0.99997055530548096,
        0.99710828065872192,
        0.99981123208999634,
        1
      ],
      "min": [
        -0.99706202745437622,
        -0.99939978122711182,
        -0.99998283386230469,
        -1
      ],
      "type": "VEC4"
    },
    {
      "bufferView": 1,
      "componentType": 5126,
      "count": 16449,
      "max": [
        1,
        1
      ],
      "min": [
        0,
        0
      ],
      "type": "VEC2"
    },
    {
      "bufferView": 0,
      "componentType": 5125,
      "count": 83715,
      "max": [
        16448
      ],
      "min": [
        0
      ],
      "type": "SCALAR"
    }
  ],
  "asset": {
    "extras": {
      "author": "thesidekick (https://sketchfab.com/thesidekick)",
      "license": "CC-BY-4.0 (http://creativecommons.org/licenses/by/4.0/)",
      "source": "https://sketchfab.com/3d-models/sumo-wrestler-statue-abb02551ede4415fbf8ede07f88fb534",
      "title": "Sumo wrestler statue"
    },
    "generator": "Sketchfab-9.82.0",
    "version": "2.0"
  },
  "bufferViews": [
    {
      "buffer": 0,
      "byteLength": 334860,
      "byteOffset": 0,
      "name": "floatBufferViews",
      "target": 34963
    },
    {
      "buffer": 0,
      "byteLength": 131592,
      "byteOffset": 334860,
      "byteStride": 8,
      "name": "floatBufferViews",
      "target": 34962
    },
    {
      "buffer": 0,
      "byteLength": 394776,
      "byteOffset": 466452,
      "byteStride": 12,
      "name": "floatBufferViews",
      "target": 34962
    },
    {
      "buffer": 0,
      "byteLength": 263184,
      "byteOffset": 861228,
      "byteStride": 16,
      "name": "floatBufferViews",
      "target": 34962
    }
  ],
  "buffers": [
    {
      "byteLength": 1124412,
      "uri": "scene.bin"
    }
  ],
  "images": [
    {
      "uri": "textures/Sumowrestler_statue_baseColor.jpeg"
    },
    {
      "uri": "textures/Sumowrestler_statue_metallicRoughness.png"
    },
    {
      "uri": "textures/Sumowrestler_statue_normal.png"
    }
  ],
  "materials": [
    {
      "doubleSided": true,
      "emissiveFactor": [
        0,
        0,
        0
      ],
      "name": "Sumowrestler_statue",
      "normalTexture": {
        "index": 2,
        "scale": 0.56111327305561798,
        "texCoord": 0
      },
      "occlusionTexture": {
        "index": 1,
        "strength": 1,
        "texCoord": 0
      },
      "pbrMetallicRoughness": {
        "baseColorFactor": [
          1,
          1,
          1,
          1
        ],
        "baseColorTexture": {
          "index": 0,
          "texCoord": 0
        },
        "metallicFactor": 0,
        "metallicRoughnessTexture": {
          "index": 1,
          "texCoord": 0
        },
        "roughnessFactor": 0.37808203768674642
      }
    }
  ],
  "meshes": [
    {
      "primitives": [
        {
          "attributes": {
            "NORMAL": 1,
            "POSITION": 0,
            "TANGENT": 2,
            "TEXCOORD_0": 3
          },
          "indices": 4,
          "material": 0,
          "mode": 4
        }
      ]
    }
  ],
  "nodes": [
    {
      "children": [
        1
      ],
      "name": "RootNode (gltf orientation matrix)",
      "rotation": [
        -0.70710678118654746,
        -0,
        -0,
        0.70710678118654757
      ]
    },
    {
      "children": [
        2
      ],
      "name": "RootNode (model correction matrix)"
    },
    {
      "children": [
        3
      ],
      "name": "Sumowrestler_statue_SF.obj.cleaner.materialmerger.gles"
    },
    {
      "mesh": 0,
      "name": ""
    }
  ],
  "samplers": [
    {
      "magFilter": 9729,
      "minFilter": 9987,
      "wrapS": 10497,
      "wrapT": 10497
    }
  ],
  "scene": 0,
  "scenes": [
    {
      "name": "OSG_Scene",
      "nodes": [
        0
      ]
    }
  ],
  "textures": [
    {
      "sampler": 0,
      "source": 0
    },
    {
      "sampler": 0,
      "source": 1
    },
    {
      "sampler": 0,
      "source": 2
    }
  ]
}

