{
  "accessors": [
    {
      "bufferView": 2,
      "componentType": 5126,
      "count": 65532,
      "max": [
        0.1568630039691925,
        0.76470601558685303,
        0.9803919792175293
      ],
      "min": [
        -0.64705902338027954,
        -0.47058799862861633,
        0.25490200519561768
      ],
      "type": "VEC3"
    },
    {
      "bufferView": 2,
      "byteOffset": 786384,
      "componentType": 5126,
      "count": 65532,
      "max": [
        1,
        1,
        1
      ],
      "min": [
        -1,
        -1,
        -1
      ],
      "type": "VEC3"
    },
    {
      "bufferView": 3,
      "componentType": 5126,
      "count": 65532,
      "max": [
        1,
        1,
        0,
        1
      ],
      "min": [
        -1,
        -1,
        0,
        -1
      ],
      "type": "VEC4"
    },
    {
      "bufferView": 3,
      "byteOffset": 1048512,
      "componentType": 5126,
      "count": 65532,
      "max": [
        1,
        1,
        1,
        1
      ],
      "min": [
        0.20000000298023224,
        0.20000000298023224,
        0.20000000298023224,
        1
      ],
      "type": "VEC4"
    },
    {
      "bufferView": 1,
      "componentType": 5126,
      "count": 65532,
      "max": [
        0.87695300579071045,
        0.96289098262786865
      ],
      "min": [
        0.84570300579071045,
        0.93164098262786865
      ],
      "type": "VEC2"
    },
    {
      "bufferView": 0,
      "componentType": 5125,
      "count": 98298,
      "max": [
        65531
      ],
      "min": [
        0
      ],
      "type": "SCALAR"
    },
    {
      "bufferView": 2,
      "byteOffset": 1572768,
      "componentType": 5126,
      "count": 58556,
      "max": [
        0.80392199754714966,
        0.76470601558685303,
        1
      ],
      "min": [
        0.1568630039691925,
        -0.64705902338027954,
        0.33333298563957214
      ],
      "type": "VEC3"
    },
    {
      "bufferView": 2,
      "byteOffset": 2275440,
      "componentType": 5126,
      "count": 58556,
      "max": [
        1,
        1,
        1
      ],
      "min": [
        -1,
        -1,
        -1
      ],
      "type": "VEC3"
    },
    {
      "bufferView": 3,
      "byteOffset": 2097024,
      "componentType": 5126,
      "count": 58556,
      "max": [
        1,
        1,
        0,
        1
      ],
      "min": [
        -1,
        -1,
        0,
        -1
      ],
      "type": "VEC4"
    },
    {
      "bufferView": 3,
      "byteOffset": 3033920,
      "componentType": 5126,
      "count": 58556,
      "max": [
        1,
        1,
        1,
        1
      ],
      "min": [
        0.20000000298023224,
        0.20000000298023224,
        0.20000000298023224,
        1
      ],
      "type": "VEC4"
    },
    {
      "bufferView": 1,
      "byteOffset": 524256,
      "componentType": 5126,
      "count": 58556,
      "max": [
        0.87695300579071045,
        0.96289098262786865
      ],
      "min": [
        0.84570300579071045,
        0.93164098262786865
      ],
      "type": "VEC2"
    },
    {
      "bufferView": 0,
      "byteOffset": 393192,
      "componentType": 5125,
      "count": 87834,
      "max": [
        58555
      ],
      "min": [
        0
      ],
      "type": "SCALAR"
    },
    {
      "bufferView": 2,
      "byteOffset": 2978112,
      "componentType": 5126,
      "count": 4200,
      "max": [
        0.4313730001449585,
        0.49019598960876465,
        0.82352900505065918
      ],
      "min": [
        -0.49019598960876465,
        -0.39215698838233948,
        0
      ],
      "type": "VEC3"
    },
    {
      "bufferView": 2,
      "byteOffset": 3028512,
      "componentType": 5126,
      "count": 4200,
      "max": [
        1,
        1,
        1
      ],
      "min": [
        -1,
        -1,
        -1
      ],
      "type": "VEC3"
    },
    {
      "bufferView": 3,
      "byteOffset": 3970816,
      "componentType": 5126,
      "count": 4200,
      "max": [
        1,
        1,
        0,
        1
      ],
      "min": [
        -1,
        -1,
        0,
        -1
      ],
      "type": "VEC4"
    },
    {
      "bufferView": 3,
      "byteOffset": 4038016,
      "componentType": 5126,
      "count": 4200,
      "max": [
        1,
        1,
        1,
        1
      ],
      "min": [
        0.098039217293262482,
        0.098039217293262482,
        0.098039217293262482,
        1
      ],
      "type": "VEC4"
    },
    {
      "bufferView": 1,
      "byteOffset": 992704,
      "componentType": 5126,
      "count": 4200,
      "max": [
        0.49023398756980896,
        0.68164098262786865
      ],
      "min": [
        0.45898398756980896,
        0.65039098262786865
      ],
      "type": "VEC2"
    },
    {
      "bufferView": 0,
      "byteOffset": 744528,
      "componentType": 5125,
      "count": 6300,
      "max": [
        4199
      ],
      "min": [
        0
      ],
      "type": "SCALAR"
    },
    {
      "bufferView": 2,
      "byteOffset": 3078912,
      "componentType": 5126,
      "count": 448,
      "max": [
        0.60784298181533813,
        0.50980401039123535,
        0.74509799480438232
      ],
      "min": [
        -0.29411798715591431,
        -0.54901999235153198,
        0.33333298563957214
      ],
      "type": "VEC3"
    },
    {
      "bufferView": 2,
      "byteOffset": 3084288,
      "componentType": 5126,
      "count": 448,
      "max": [
        1,
        1,
        1
      ],
      "min": [
        -1,
        -1,
        -1
      ],
      "type": "VEC3"
    },
    {
      "bufferView": 3,
      "byteOffset": 4105216,
      "componentType": 5126,
      "count": 448,
      "max": [
        1,
        1,
        0,
        1
      ],
      "min": [
        -1,
        -1,
        0,
        -1
      ],
      "type": "VEC4"
    },
    {
      "bufferView": 3,
      "byteOffset": 4112384,
      "componentType": 5126,
      "count": 448,
      "max": [
        1,
        1,
        1,
        1
      ],
      "min": [
        0.23921568691730499,
        0.23921568691730499,
        0.23921568691730499,
        1
      ],
      "type": "VEC4"
    },
    {
      "bufferView": 1,
      "byteOffset": 1026304,
      "componentType": 5126,
      "count": 448,
      "max": [
        0.91210901737213135,
        0.61132800579071045
      ],
      "min": [
        0.88085901737213135,
        0.58007800579071045
      ],
      "type": "VEC2"
    },
    {
      "bufferView": 0,
      "byteOffset": 769728,
      "componentType": 5125,
      "count": 672,
      "max": [
        447
      ],
      "min": [
        0
      ],
      "type": "SCALAR"
    },
    {
      "bufferView": 2,
      "byteOffset": 3089664,
      "componentType": 5126,
      "count": 22742,
      "max": [
        0.7561269998550415,
        0.71691197156906128,
        0.94117701053619385
      ],
      "min": [
        -0.60784298181533813,
        -0.59926497936248779,
        0.23529399931430817
      ],
      "type": "VEC3"
    },
    {
      "bufferView": 2,
      "byteOffset": 3362568,
      "componentType": 5126,
      "count": 22742,
      "max": [
        1,
        1,
        1
      ],
      "min": [
        -1,
        -1,
        -1
      ],
      "type": "VEC3"
    },
    {
      "bufferView": 3,
      "byteOffset": 4119552,
      "componentType": 5126,
      "count": 22742,
      "max": [
        1,
        1,
        0,
        1
      ],
      "min": [
        -1,
        -1,
        0,
        -1
      ],
      "type": "VEC4"
    },
    {
      "bufferView": 3,
      "byteOffset": 4483424,
      "componentType": 5126,
      "count": 22742,
      "max": [
        1,
        1,
        1,
        1
      ],
      "min": [
        0.20000000298023224,
        0.20000000298023224,
        0.20000000298023224,
        1
      ],
      "type": "VEC4"
    },
    {
      "bufferView": 1,
      "byteOffset": 1029888,
      "componentType": 5126,
      "count": 22742,
      "max": [
        0.91210901737213135,
        0.61132800579071045
      ],
      "min": [
        0.4726560115814209,
        0.54492199420928955
      ],
      "type": "VEC2"
    },
    {
      "bufferView": 0,
      "byteOffset": 772416,
      "componentType": 5125,
      "count": 34122,
      "max": [
        22741
      ],
      "min": [
        0
      ],
      "type": "SCALAR"
    },
    {
      "bufferView": 2,
      "byteOffset": 3635472,
      "componentType": 5126,
      "count": 29752,
      "max": [
        0.68627500534057617,
        0.72548997402191162,
        0.92156898975372314
      ],
      "min": [
        -0.5686269998550415,
        -0.54901999235153198,
        0
      ],
      "type": "VEC3"
    },
    {
      "bufferView": 2,
      "byteOffset": 3992496,
      "componentType": 5126,
      "count": 29752,
      "max": [
        1,
        1,
        1
      ],
      "min": [
        -1,
        -1,
        -1
      ],
      "type": "VEC3"
    },
    {
      "bufferView": 3,
      "byteOffset": 4847296,
      "componentType": 5126,
      "count": 29752,
      "max": [
        1,
        1,
        0,
        1
      ],
      "min": [
        -1,
        -1,
        0,
        -1
      ],
      "type": "VEC4"
    },
    {
      "bufferView": 3,
      "byteOffset": 5323328,
      "componentType": 5126,
      "count": 29752,
      "max": [
        1,
        1,
        1,
        1
      ],
      "min": [
        0.098039217293262482,
        0.098039217293262482,
        0.098039217293262482,
        1
      ],
      "type": "VEC4"
    },
    {
      "bufferView": 1,
      "byteOffset": 1211824,
      "componentType": 5126,
      "count": 29752,
      "max": [
        0.49023398756980896,
        0.78710901737213135
      ],
      "min": [
        0.45898398756980896,
        0.75585901737213135
      ],
      "type": "VEC2"
    },
    {
      "bufferView": 0,
      "byteOffset": 908904,
      "componentType": 5125,
      "count": 44628,
      "max": [
        29751
      ],
      "min": [
        0
      ],
      "type": "SCALAR"
    }
  ],
  "asset": {
    "extras": {
      "author": "Plutouthere (https://sketchfab.com/Plutouthere)",
      "license": "CC-BY-4.0 (http://creativecommons.org/licenses/by/4.0/)",
      "source": "https://sketchfab.com/models/fd66020d09774080a6e2b4256e3ee89e",
      "title": "MineCraft Catalpa Tree Concept"
    },
    "generator": "Sketchfab-3.19.2",
    "version": "2.0"
  },
  "bufferViews": [
    {
      "buffer": 0,
      "byteLength": 1087416,
      "byteOffset": 0,
      "name": "floatBufferViews",
      "target": 34963
    },
    {
      "buffer": 0,
      "byteLength": 1449840,
      "byteOffset": 1087416,
      "byteStride": 8,
      "name": "floatBufferViews",
      "target": 34962
    },
    {
      "buffer": 0,
      "byteLength": 4349520,
      "byteOffset": 2537256,
      "byteStride": 12,
      "name": "floatBufferViews",
      "target": 34962
    },
    {
      "buffer": 0,
      "byteLength": 5799360,
      "byteOffset": 6886776,
      "byteStride": 16,
      "name": "floatBufferViews",
      "target": 34962
    }
  ],
  "buffers": [
    {
      "byteLength": 12686136,
      "uri": "scene.bin"
    }
  ],
  "images": [
    {
      "uri": "textures/Wood_AcaciaDark_Oak_baseColor.png"
    },
    {
      "uri": "textures/Wood_AcaciaDark_Oak_emissive.png"
    },
    {
      "uri": "textures/Leaves_baseColor.png"
    },
    {
      "uri": "textures/Leaves_emissive.png"
    },
    {
      "uri": "textures/Stained_Glass_Pane_baseColor.png"
    },
    {
      "uri": "textures/Stained_Glass_Pane_emissive.png"
    },
    {
      "uri": "textures/Stained_Clay_baseColor.png"
    },
    {
      "uri": "textures/Stained_Clay_emissive.png"
    },
    {
      "uri": "textures/Stained_Glass_baseColor.png"
    },
    {
      "uri": "textures/Stained_Glass_emissive.png"
    }
  ],
  "materials": [
    {
      "alphaCutoff": 0.46512957319999998,
      "alphaMode": "MASK",
      "doubleSided": false,
      "emissiveFactor": [
        0.10000000000000001,
        0.10000000000000001,
        0.10000000000000001
      ],
      "emissiveTexture": {
        "index": 3,
        "texCoord": 0
      },
      "name": "Leaves",
      "pbrMetallicRoughness": {
        "baseColorFactor": [
          1,
          1,
          1,
          1
        ],
        "baseColorTexture": {
          "index": 2,
          "texCoord": 0
        },
        "metallicFactor": 0,
        "roughnessFactor": 1
      }
    },
    {
      "doubleSided": true,
      "emissiveFactor": [
        0.10000000000000001,
        0.10000000000000001,
        0.10000000000000001
      ],
      "emissiveTexture": {
        "index": 7,
        "texCoord": 0
      },
      "name": "Stained_Clay",
      "pbrMetallicRoughness": {
        "baseColorFactor": [
          1,
          1,
          1,
          1
        ],
        "baseColorTexture": {
          "index": 6,
          "texCoord": 0
        },
        "metallicFactor": 0,
        "roughnessFactor": 1
      }
    },
    {
      "alphaMode": "BLEND",
      "doubleSided": false,
      "emissiveFactor": [
        0.10000000000000001,
        0.10000000000000001,
        0.10000000000000001
      ],
      "emissiveTexture": {
        "index": 9,
        "texCoord": 0
      },
      "name": "Stained_Glass",
      "pbrMetallicRoughness": {
        "baseColorFactor": [
          1,
          1,
          1,
          1
        ],
        "baseColorTexture": {
          "index": 8,
          "texCoord": 0
        },
        "metallicFactor": 0,
        "roughnessFactor": 1
      }
    },
    {
      "alphaMode": "BLEND",
      "doubleSided": false,
      "emissiveFactor": [
        0.10000000000000001,
        0.10000000000000001,
        0.10000000000000001
      ],
      "emissiveTexture": {
        "index": 5,
        "texCoord": 0
      },
      "name": "Stained_Glass_Pane",
      "pbrMetallicRoughness": {
        "baseColorFactor": [
          1,
          1,
          1,
          1
        ],
        "baseColorTexture": {
          "index": 4,
          "texCoord": 0
        },
        "metallicFactor": 0,
        "roughnessFactor": 1
      }
    },
    {
      "doubleSided": true,
      "emissiveFactor": [
        0.10000000000000001,
        0.10000000000000001,
        0.10000000000000001
      ],
      "emissiveTexture": {
        "index": 1,
        "texCoord": 0
      },
      "name": "Wood_AcaciaDark_Oak",
      "pbrMetallicRoughness": {
        "baseColorFactor": [
          1,
          1,
          1,
          1
        ],
        "baseColorTexture": {
          "index": 0,
          "texCoord": 0
        },
        "metallicFactor": 0,
        "roughnessFactor": 1
      }
    }
  ],
  "meshes": [
    {
      "primitives": [
        {
          "attributes": {
            "COLOR_0": 3,
            "NORMAL": 1,
            "POSITION": 0,
            "TANGENT": 2,
            "TEXCOORD_0": 4
          },
          "indices": 5,
          "material": 0,
          "mode": 4
        }
      ]
    },
    {
      "primitives": [
        {
          "attributes": {
            "COLOR_0": 9,
            "NORMAL": 7,
            "POSITION": 6,
            "TANGENT": 8,
            "TEXCOORD_0": 10
          },
          "indices": 11,
          "material": 0,
          "mode": 4
        }
      ]
    },
    {
      "primitives": [
        {
          "attributes": {
            "COLOR_0": 15,
            "NORMAL": 13,
            "POSITION": 12,
            "TANGENT": 14,
            "TEXCOORD_0": 16
          },
          "indices": 17,
          "material": 1,
          "mode": 4
        }
      ]
    },
    {
      "primitives": [
        {
          "attributes": {
            "COLOR_0": 21,
            "NORMAL": 19,
            "POSITION": 18,
            "TANGENT": 20,
            "TEXCOORD_0": 22
          },
          "indices": 23,
          "material": 2,
          "mode": 4
        }
      ]
    },
    {
      "primitives": [
        {
          "attributes": {
            "COLOR_0": 27,
            "NORMAL": 25,
            "POSITION": 24,
            "TANGENT": 26,
            "TEXCOORD_0": 28
          },
          "indices": 29,
          "material": 3,
          "mode": 4
        }
      ]
    },
    {
      "primitives": [
        {
          "attributes": {
            "COLOR_0": 33,
            "NORMAL": 31,
            "POSITION": 30,
            "TANGENT": 32,
            "TEXCOORD_0": 34
          },
          "indices": 35,
          "material": 4,
          "mode": 4
        }
      ]
    }
  ],
  "nodes": [
    {
      "children": [
        1
      ],
      "name": "RootNode (gltf orientation matrix)",
      "rotation": [
        -0.70710678118654746,
        -0,
        -0,
        0.70710678118654757
      ]
    },
    {
      "children": [
        2
      ],
      "name": "RootNode (model correction matrix)"
    },
    {
      "children": [
        3,
        4,
        5,
        6,
        7,
        8
      ],
      "name": "Mineways2Skfb_ao.obj.minecraft.cleaner.materialmerger.gles"
    },
    {
      "mesh": 0,
      "name": ""
    },
    {
      "mesh": 1,
      "name": ""
    },
    {
      "mesh": 2,
      "name": ""
    },
    {
      "mesh": 3,
      "name": ""
    },
    {
      "mesh": 4,
      "name": ""
    },
    {
      "mesh": 5,
      "name": ""
    }
  ],
  "samplers": [
    {
      "magFilter": 9728,
      "minFilter": 9986,
      "wrapS": 10497,
      "wrapT": 10497
    }
  ],
  "scene": 0,
  "scenes": [
    {
      "name": "OSG_Scene",
      "nodes": [
        0
      ]
    }
  ],
  "textures": [
    {
      "sampler": 0,
      "source": 0
    },
    {
      "sampler": 0,
      "source": 1
    },
    {
      "sampler": 0,
      "source": 2
    },
    {
      "sampler": 0,
      "source": 3
    },
    {
      "sampler": 0,
      "source": 4
    },
    {
      "sampler": 0,
      "source": 5
    },
    {
      "sampler": 0,
      "source": 6
    },
    {
      "sampler": 0,
      "source": 7
    },
    {
      "sampler": 0,
      "source": 8
    },
    {
      "sampler": 0,
      "source": 9
    }
  ]
}

