{
  "accessors": [
    {
      "bufferView": 2,
      "componentType": 5126,
      "count": 29964,
      "max": [
        6.2148299217224121,
        3.7684600353240967,
        0.84574997425079346
      ],
      "min": [
        -6.2148299217224121,
        -3.7684600353240967,
        0.039560001343488693
      ],
      "type": "VEC3"
    },
    {
      "bufferView": 2,
      "byteOffset": 359568,
      "componentType": 5126,
      "count": 29964,
      "max": [
        1,
        1,
        1
      ],
      "min": [
        -1,
        -1,
        -1
      ],
      "type": "VEC3"
    },
    {
      "bufferView": 3,
      "componentType": 5126,
      "count": 29964,
      "max": [
        1,
        1,
        0.99958115816116333,
        1
      ],
      "min": [
        -1,
        -1,
        -0.99997663497924805,
        -1
      ],
      "type": "VEC4"
    },
    {
      "bufferView": 1,
      "componentType": 5126,
      "count": 29964,
      "max": [
        0.9528999924659729,
        0.98746001720428467
      ],
      "min": [
        0.023299999535083771,
        0.10576000064611435
      ],
      "type": "VEC2"
    },
    {
      "bufferView": 0,
      "componentType": 5125,
      "count": 78312,
      "max": [
        29963
      ],
      "min": [
        0
      ],
      "type": "SCALAR"
    },
    {
      "bufferView": 2,
      "byteOffset": 719136,
      "componentType": 5126,
      "count": 536,
      "max": [
        6.856989860534668,
        4.0693798065185547,
        -0.64086002111434937
      ],
      "min": [
        -6.856989860534668,
        -4.0693798065185547,
        -0.80387002229690552
      ],
      "type": "VEC3"
    },
    {
      "bufferView": 2,
      "byteOffset": 725568,
      "componentType": 5126,
      "count": 536,
      "max": [
        0.99171572923660278,
        0.99218285083770752,
        1
      ],
      "min": [
        -0.99171572923660278,
        -0.99218285083770752,
        -1
      ],
      "type": "VEC3"
    },
    {
      "bufferView": 3,
      "byteOffset": 479424,
      "componentType": 5126,
      "count": 536,
      "max": [
        0.9682658314704895,
        0.98535960912704468,
        0.99113702774047852,
        1
      ],
      "min": [
        -1,
        -0.96638530492782593,
        -0.98716181516647339,
        1
      ],
      "type": "VEC4"
    },
    {
      "bufferView": 1,
      "byteOffset": 239712,
      "componentType": 5126,
      "count": 536,
      "max": [
        0.99074000120162964,
        0.84933000802993774
      ],
      "min": [
        0.0013800000306218863,
        0.0013500000350177288
      ],
      "type": "VEC2"
    },
    {
      "bufferView": 0,
      "byteOffset": 313248,
      "componentType": 5125,
      "count": 2796,
      "max": [
        535
      ],
      "min": [
        0
      ],
      "type": "SCALAR"
    },
    {
      "bufferView": 2,
      "byteOffset": 732000,
      "componentType": 5126,
      "count": 12647,
      "max": [
        3.7918000221252441,
        6.5528898239135742,
        6.3447098731994629
      ],
      "min": [
        -3.7918000221252441,
        -6.5528898239135742,
        0.84574997425079346
      ],
      "type": "VEC3"
    },
    {
      "bufferView": 2,
      "byteOffset": 883764,
      "componentType": 5126,
      "count": 12647,
      "max": [
        1,
        1,
        1
      ],
      "min": [
        -1,
        -1,
        -1
      ],
      "type": "VEC3"
    },
    {
      "bufferView": 3,
      "byteOffset": 488000,
      "componentType": 5126,
      "count": 12647,
      "max": [
        1,
        0.99999988079071045,
        0.99391031265258789,
        1
      ],
      "min": [
        -1,
        -1,
        -1,
        -1
      ],
      "type": "VEC4"
    },
    {
      "bufferView": 1,
      "byteOffset": 244000,
      "componentType": 5126,
      "count": 12647,
      "max": [
        0.99923998117446899,
        1.1930299997329712
      ],
      "min": [
        0.017470000311732292,
        0.052420001477003098
      ],
      "type": "VEC2"
    },
    {
      "bufferView": 0,
      "byteOffset": 324432,
      "componentType": 5125,
      "count": 68502,
      "max": [
        12646
      ],
      "min": [
        0
      ],
      "type": "SCALAR"
    }
  ],
  "asset": {
    "extras": {
      "author": "myndman (https://sketchfab.com/myndman)",
      "license": "CC-BY-4.0 (http://creativecommons.org/licenses/by/4.0/)",
      "source": "https://sketchfab.com/3d-models/mahogany-table-e9ef3eadee9d4491b7c59fdbb19c30cd",
      "title": "Mahogany Table"
    },
    "generator": "Sketchfab-4.61.0",
    "version": "2.0"
  },
  "bufferViews": [
    {
      "buffer": 0,
      "byteLength": 598440,
      "byteOffset": 0,
      "name": "floatBufferViews",
      "target": 34963
    },
    {
      "buffer": 0,
      "byteLength": 345176,
      "byteOffset": 598440,
      "byteStride": 8,
      "name": "floatBufferViews",
      "target": 34962
    },
    {
      "buffer": 0,
      "byteLength": 1035528,
      "byteOffset": 943616,
      "byteStride": 12,
      "name": "floatBufferViews",
      "target": 34962
    },
    {
      "buffer": 0,
      "byteLength": 690352,
      "byteOffset": 1979144,
      "byteStride": 16,
      "name": "floatBufferViews",
      "target": 34962
    }
  ],
  "buffers": [
    {
      "byteLength": 2669496,
      "uri": "scene.bin"
    }
  ],
  "images": [
    {
      "uri": "textures/Mahogany_Top.001_metallicRoughness.png"
    },
    {
      "uri": "textures/Mahogany_Top.001_normal.png"
    },
    {
      "uri": "textures/Mahogany_Top.001_baseColor.png"
    },
    {
      "uri": "textures/Mahogany_Sides_and_Legs_baseColor.png"
    },
    {
      "uri": "textures/Mahogany_Sides_and_Legs_metallicRoughness.png"
    },
    {
      "uri": "textures/Mahogany_Sides_and_Legs_normal.png"
    },
    {
      "uri": "textures/Brass.001_baseColor.jpeg"
    },
    {
      "uri": "textures/Brass.001_normal.png"
    }
  ],
  "materials": [
    {
      "doubleSided": true,
      "name": "Mahogany_Sides_and_Legs",
      "normalTexture": {
        "index": 5,
        "scale": 0.068788109799999997,
        "texCoord": 0
      },
      "occlusionTexture": {
        "index": 4,
        "strength": 1,
        "texCoord": 0
      },
      "pbrMetallicRoughness": {
        "baseColorFactor": [
          1,
          1,
          1,
          1
        ],
        "baseColorTexture": {
          "index": 3,
          "texCoord": 0
        },
        "metallicFactor": 0,
        "roughnessFactor": 0.25
      }
    },
    {
      "doubleSided": true,
      "emissiveFactor": [
        0,
        0,
        0
      ],
      "name": "Mahogany_Top.001",
      "normalTexture": {
        "index": 1,
        "scale": 0.2395198171,
        "texCoord": 0
      },
      "occlusionTexture": {
        "index": 0,
        "strength": 0.21512957320000001,
        "texCoord": 0
      },
      "pbrMetallicRoughness": {
        "baseColorFactor": [
          1,
          1,
          1,
          1
        ],
        "baseColorTexture": {
          "index": 2,
          "texCoord": 0
        },
        "metallicFactor": 0.038300304899999998,
        "metallicRoughnessTexture": {
          "index": 0,
          "texCoord": 0
        },
        "roughnessFactor": 0.12
      }
    },
    {
      "doubleSided": true,
      "name": "Brass.001",
      "normalTexture": {
        "index": 7,
        "scale": 0.40415396339999998,
        "texCoord": 0
      },
      "pbrMetallicRoughness": {
        "baseColorFactor": [
          0.45903201220000001,
          0.45903201220000001,
          0.45903201220000001,
          1
        ],
        "baseColorTexture": {
          "index": 6,
          "texCoord": 0
        },
        "metallicFactor": 1,
        "roughnessFactor": 0.43464176830000001
      }
    }
  ],
  "meshes": [
    {
      "name": "Brass Wheels_0",
      "primitives": [
        {
          "attributes": {
            "NORMAL": 1,
            "POSITION": 0,
            "TANGENT": 2,
            "TEXCOORD_0": 3
          },
          "indices": 4,
          "material": 2,
          "mode": 4
        }
      ]
    },
    {
      "name": "Table Top_0",
      "primitives": [
        {
          "attributes": {
            "NORMAL": 6,
            "POSITION": 5,
            "TANGENT": 7,
            "TEXCOORD_0": 8
          },
          "indices": 9,
          "material": 1,
          "mode": 4
        }
      ]
    },
    {
      "name": "Legs and Rails_0",
      "primitives": [
        {
          "attributes": {
            "NORMAL": 11,
            "POSITION": 10,
            "TANGENT": 12,
            "TEXCOORD_0": 13
          },
          "indices": 14,
          "material": 0,
          "mode": 4
        }
      ]
    }
  ],
  "nodes": [
    {
      "children": [
        1
      ],
      "name": "RootNode (gltf orientation matrix)",
      "rotation": [
        -0.70710678118654746,
        -0,
        -0,
        0.70710678118654757
      ]
    },
    {
      "children": [
        2
      ],
      "name": "RootNode (model correction matrix)"
    },
    {
      "children": [
        3,
        5,
        7,
        9
      ],
      "name": "Root"
    },
    {
      "children": [
        4
      ],
      "name": "Brass Wheels"
    },
    {
      "mesh": 0,
      "name": "Brass Wheels_0"
    },
    {
      "children": [
        6
      ],
      "matrix": [
        1,
        0,
        0,
        0,
        0,
        1,
        0,
        0,
        0,
        0,
        1,
        0,
        0,
        0,
        7.1436799999999998,
        1
      ],
      "name": "Table Top"
    },
    {
      "mesh": 1,
      "name": "Table Top_0"
    },
    {
      "children": [
        8
      ],
      "matrix": [
        -0,
        1,
        0,
        0,
        -1,
        -0,
        0,
        0,
        0,
        0,
        1,
        0,
        0,
        0,
        0,
        1
      ],
      "name": "Legs and Rails"
    },
    {
      "mesh": 2,
      "name": "Legs and Rails_0"
    },
    {
      "children": [
        10
      ],
      "matrix": [
        1,
        0,
        0,
        0,
        0,
        1,
        0,
        0,
        0,
        0,
        1,
        0,
        -0.23240000000000002,
        -0.67229000000000017,
        15.83423,
        1
      ],
      "name": "Sun"
    },
    {
      "name": "Sun"
    }
  ],
  "samplers": [
    {
      "magFilter": 9729,
      "minFilter": 9987,
      "wrapS": 10497,
      "wrapT": 10497
    }
  ],
  "scene": 0,
  "scenes": [
    {
      "name": "OSG_Scene",
      "nodes": [
        0
      ]
    }
  ],
  "textures": [
    {
      "sampler": 0,
      "source": 0
    },
    {
      "sampler": 0,
      "source": 1
    },
    {
      "sampler": 0,
      "source": 2
    },
    {
      "sampler": 0,
      "source": 3
    },
    {
      "sampler": 0,
      "source": 4
    },
    {
      "sampler": 0,
      "source": 5
    },
    {
      "sampler": 0,
      "source": 6
    },
    {
      "sampler": 0,
      "source": 7
    }
  ]
}

