{
  "accessors": [
    {
      "bufferView": 2,
      "componentType": 5126,
      "count": 32108,
      "max": [
        0.10658378154039383,
        -0.32573455572128296,
        0.33958694338798523
      ],
      "min": [
        -0.32026615738868713,
        -0.6657733917236328,
        -0.13257910311222076
      ],
      "type": "VEC3"
    },
    {
      "bufferView": 2,
      "byteOffset": 385296,
      "componentType": 5126,
      "count": 32108,
      "max": [
        0.9999977946281433,
        0.9999932646751404,
        0.999950647354126
      ],
      "min": [
        -0.9999903440475464,
        -1.0,
        -0.9999748468399048
      ],
      "type": "VEC3"
    },
    {
      "bufferView": 3,
      "componentType": 5126,
      "count": 32108,
      "max": [
        0.9999848008155823,
        0.999987006187439,
        0.9999974370002747,
        1.0
      ],
      "min": [
        -0.9993101358413696,
        -0.9999896287918091,
        -0.9997196793556213,
        -1.0
      ],
      "type": "VEC4"
    },
    {
      "bufferView": 1,
      "componentType": 5126,
      "count": 32108,
      "max": [
        0.9994714260101318,
        0.9999942779541016
      ],
      "min": [
        0.00012494251132011414,
        2.956390380859375e-05
      ],
      "type": "VEC2"
    },
    {
      "bufferView": 0,
      "componentType": 5125,
      "count": 164091,
      "type": "SCALAR"
    }
  ],
  "asset": {
    "extras": {
      "author": "PhotogramTree (https://sketchfab.com/photogramtree)",
      "license": "CC-BY-4.0 (http://creativecommons.org/licenses/by/4.0/)",
      "source": "https://sketchfab.com/3d-models/armchair-26b063ece4f9486084a11142b5eec53a",
      "title": "Armchair"
    },
    "generator": "Sketchfab-11.31.0",
    "version": "2.0"
  },
  "bufferViews": [
    {
      "buffer": 0,
      "byteLength": 656364,
      "name": "floatBufferViews",
      "target": 34963
    },
    {
      "buffer": 0,
      "byteLength": 256864,
      "byteOffset": 656364,
      "byteStride": 8,
      "name": "floatBufferViews",
      "target": 34962
    },
    {
      "buffer": 0,
      "byteLength": 770592,
      "byteOffset": 913228,
      "byteStride": 12,
      "name": "floatBufferViews",
      "target": 34962
    },
    {
      "buffer": 0,
      "byteLength": 513728,
      "byteOffset": 1683820,
      "byteStride": 16,
      "name": "floatBufferViews",
      "target": 34962
    }
  ],
  "buffers": [
    {
      "byteLength": 2197548,
      "uri": "scene.bin"
    }
  ],
  "images": [
    {
      "uri": "textures/material_baseColor.png"
    },
    {
      "uri": "textures/material_metallicRoughness.png"
    },
    {
      "uri": "textures/material_normal.png"
    }
  ],
  "materials": [
    {
      "name": "material",
      "normalTexture": {
        "index": 2
      },
      "occlusionTexture": {
        "index": 1
      },
      "pbrMetallicRoughness": {
        "baseColorTexture": {
          "index": 0
        },
        "metallicFactor": 0.0,
        "metallicRoughnessTexture": {
          "index": 1
        },
        "roughnessFactor": 0.9
      }
    }
  ],
  "meshes": [
    {
      "name": "g0",
      "primitives": [
        {
          "attributes": {
            "NORMAL": 1,
            "POSITION": 0,
            "TANGENT": 2,
            "TEXCOORD_0": 3
          },
          "indices": 4,
          "material": 0,
          "mode": 4
        }
      ]
    }
  ],
  "nodes": [
    {
      "children": [
        1
      ],
      "matrix": [
        1.0,
        0.0,
        0.0,
        0.0,
        0.0,
        2.220446049250313e-16,
        -1.0,
        0.0,
        0.0,
        1.0,
        2.220446049250313e-16,
        0.0,
        0.0,
        0.0,
        0.0,
        1.0
      ],
      "name": "Sketchfab_model"
    },
    {
      "children": [
        2
      ],
      "matrix": [
        1.0,
        0.0,
        0.0,
        0.0,
        0.0,
        2.220446049250313e-16,
        1.0,
        0.0,
        0.0,
        -1.0,
        2.220446049250313e-16,
        0.0,
        0.0,
        0.0,
        0.0,
        1.0
      ],
      "name": "USDRoot"
    },
    {
      "children": [
        3
      ],
      "name": "armchair_Medium"
    },
    {
      "children": [
        4
      ],
      "name": "Geom"
    },
    {
      "children": [
        5
      ],
      "name": "armchair_Medium"
    },
    {
      "children": [
        6
      ],
      "name": "Geom"
    },
    {
      "children": [
        7
      ],
      "name": "baked_mesh"
    },
    {
      "children": [
        8
      ],
      "matrix": [
        1.0,
        0.0,
        0.0,
        0.0,
        0.0,
        1.0,
        0.0,
        0.0,
        0.0,
        0.0,
        1.0,
        0.0,
        0.0,
        0.026618316769599915,
        0.0,
        1.0
      ],
      "name": "Geom"
    },
    {
      "children": [
        9
      ],
      "matrix": [
        -0.2163446545600891,
        0.0,
        0.9762919545173645,
        0.0,
        0.0,
        0.9999893307685852,
        0.0,
        0.0,
        -0.9762919545173645,
        0.0,
        -0.2163446545600891,
        0.0,
        0.09063282608985901,
        0.6331177949905396,
        -0.01243734359741211,
        1.0
      ],
      "name": "g0"
    },
    {
      "mesh": 0,
      "name": "g0"
    }
  ],
  "samplers": [
    {
      "magFilter": 9729,
      "minFilter": 9987,
      "wrapS": 10497,
      "wrapT": 10497
    }
  ],
  "scene": 0,
  "scenes": [
    {
      "name": "Sketchfab_Scene",
      "nodes": [
        0
      ]
    }
  ],
  "textures": [
    {
      "sampler": 0,
      "source": 0
    },
    {
      "sampler": 0,
      "source": 1
    },
    {
      "sampler": 0,
      "source": 2
    }
  ]
}
